# xmcd CD database file
#
# Track frame offsets:
#	150
#	19705
#	36935
#	54857
#	70602
#	88077
#	109790
#	136420
#	153455
#	174787
#	191965
#	212945
#	227960
#	248930
#
# Disc length: 3541 seconds
#
# Revision: 0
# Processed by: cddbd v1.5.1PL2 Copyright (c) Steve Scherf et al.
# Submitted via: CDex 1.51
#
DISCID=bf0dd30e
DTITLE=Various Artist - Super Duets
DYEAR=1995
DGENRE=Pop
TTITLE0=Pet Shop Boys and Dusty Springfield - What Have I Done To Deserve This?
TTITLE1=Kenny Rogers and Sheena Easton - We've Got Tonight
TTITLE2=D'atra Hicks and Evan Rogers - Until Forever
TTITLE3=Peabo Bryson and Roberta Flack - Tonight, I Celebrate My Love
TTITLE4=Jaki Graham and David Grant - Mated
TTITLE5=Freddie Jackson and D'atra Hicks - Live My Life Without You
TTITLE6=Peter Gabriel and Kate Bush - Don't Give Up
TTITLE7=Robert Palmer and B,J, Nelson - Tell Me I'm Not Dreaming
TTITLE8=Brenda Russell and Bobby Caldwell - Who Are You?
TTITLE9=Tina Turner and Bryan Adams - It's Only Love(Live)
TTITLE10=Marc Almond and Gene Pitney - Something's Gotten Hold of My Heart
TTITLE11=Natalie Cole and Peabo Bryson - Gimme Some Time
TTITLE12=Meli'sa Morgan and Kashif - Love Changes
TTITLE13=Stevie Nicks and Don Henley - Leather And Lace
EXTD=YEAR: 1995
EXTT0=
EXTT1=
EXTT2=
EXTT3=
EXTT4=
EXTT5=
EXTT6=
EXTT7=
EXTT8=
EXTT9=
EXTT10=
EXTT11=
EXTT12=
EXTT13=
PLAYORDER=
